HIERARCHY
ROOT Hips
{
	OFFSET 0.000000 0.000000 0.000000
	CHANNELS 6 Xposition Yposition Zposition Xrotation Yrotation Zrotation
	JOINT LeftUpLeg_virtual
	{
		OFFSET 0.000000 0.000000 0.000000
		CHANNELS 3 Xrotation Yrotation Zrotation
		JOINT LeftUpLeg
		{
			OFFSET 11.394100 -6.187798 -0.413800
			CHANNELS 3 Xrotation Yrotation Zrotation
			JOINT LeftLeg
			{
				OFFSET 0.430247 -32.302673 3.732800
				CHANNELS 3 Xrotation Yrotation Zrotation
				JOINT LeftFoot
				{
					OFFSET -0.430247 -48.264931 -6.423300
					CHANNELS 3 Xrotation Yrotation Zrotation
					JOINT LeftToeBase
					{
						OFFSET 4.230900 -16.068199 23.438400
						CHANNELS 3 Xrotation Yrotation Zrotation
						JOINT LeftToe_End
						{
							OFFSET 4.510700 0.695400 19.974600
							CHANNELS 3 Xrotation Yrotation Zrotation
							End Site
							{
								OFFSET 0 0 0
							}
						}
					}
				}
			}
		}
	}
	JOINT RightUpLeg_virtual
	{
		OFFSET 0.000000 0.000000 0.000000
		CHANNELS 3 Xrotation Yrotation Zrotation
		JOINT RightUpLeg
		{
			OFFSET -11.333700 -6.187798 -0.413800
			CHANNELS 3 Xrotation Yrotation Zrotation
			JOINT RightLeg
			{
				OFFSET -0.430392 -32.302628 3.733000
				CHANNELS 3 Xrotation Yrotation Zrotation
				JOINT RightFoot
				{
					OFFSET 0.430392 -48.264973 -6.423500
					CHANNELS 3 Xrotation Yrotation Zrotation
					JOINT RightToeBase
					{
						OFFSET -4.230900 -16.068199 23.438400
						CHANNELS 3 Xrotation Yrotation Zrotation
						JOINT RightToe_End
						{
							OFFSET -4.510700 0.695400 19.974600
							CHANNELS 3 Xrotation Yrotation Zrotation
							End Site
							{
								OFFSET 0 0 0
							}
						}
					}
				}
			}
		}
	}
	JOINT Spine_virtual
	{
		OFFSET 0.000000 0.000000 0.000000
		CHANNELS 3 Xrotation Yrotation Zrotation
		JOINT Spine
		{
			OFFSET -0.002400 12.777504 0.315300
			CHANNELS 3 Xrotation Yrotation Zrotation
			JOINT Spine1
			{
				OFFSET -0.002067 5.816869 0.032633
				CHANNELS 3 Xrotation Yrotation Zrotation
				JOINT Spine1_split
				{
					OFFSET -0.002067 5.816869 0.032633
					CHANNELS 3 Xrotation Yrotation Zrotation
					JOINT Spine2
					{
						OFFSET -0.002067 5.816869 0.032633
						CHANNELS 3 Xrotation Yrotation Zrotation
						JOINT Neck_virtual
						{
							OFFSET 0.000000 0.000000 0.000000
							CHANNELS 3 Xrotation Yrotation Zrotation
							JOINT Neck
							{
								OFFSET -0.003700 21.199493 -0.826900
								CHANNELS 3 Xrotation Yrotation Zrotation
								JOINT Head
								{
									OFFSET 0.000000 20.442200 4.834800
									CHANNELS 3 Xrotation Yrotation Zrotation
									JOINT HeadTop_End
									{
										OFFSET 0.000000 34.668396 4.968400
										CHANNELS 3 Xrotation Yrotation Zrotation
										End Site
										{
											OFFSET 0 0 0
										}
									}
								}
							}
						}
						JOINT LeftShoulder_virtual
						{
							OFFSET 0.000000 0.000000 0.000000
							CHANNELS 3 Xrotation Yrotation Zrotation
							JOINT LeftShoulder
							{
								OFFSET 3.288150 8.794197 -1.372250
								CHANNELS 3 Xrotation Yrotation Zrotation
								JOINT LeftShoulder_split
								{
									OFFSET 3.288150 8.794197 -1.372250
									CHANNELS 3 Xrotation Yrotation Zrotation
									JOINT LeftArm
									{
										OFFSET 11.953299 -2.279007 -0.146200
										CHANNELS 3 Xrotation Yrotation Zrotation
										JOINT LeftForeArm
										{
											OFFSET 18.448900 0.000000 0.000000
											CHANNELS 3 Xrotation Yrotation Zrotation
											JOINT LeftHand
											{
												OFFSET 29.527798 0.000000 0.000000
												CHANNELS 3 Xrotation Yrotation Zrotation
												End Site
												{
													OFFSET 0 0 0
												}
											}
										}
									}
								}
							}
						}
						JOINT RightShoulder_virtual
						{
							OFFSET 0.000000 0.000000 0.000000
							CHANNELS 3 Xrotation Yrotation Zrotation
							JOINT RightShoulder
							{
								OFFSET -3.249400 8.794197 -1.372250
								CHANNELS 3 Xrotation Yrotation Zrotation
								JOINT RightShoulder_split
								{
									OFFSET -3.249400 8.794197 -1.372250
									CHANNELS 3 Xrotation Yrotation Zrotation
									JOINT RightArm
									{
										OFFSET -11.953299 -2.279007 -0.146200
										CHANNELS 3 Xrotation Yrotation Zrotation
										JOINT RightForeArm
										{
											OFFSET -18.448900 0.000000 0.000000
											CHANNELS 3 Xrotation Yrotation Zrotation
											JOINT RightHand
											{
												OFFSET -29.527802 0.000000 0.000000
												CHANNELS 3 Xrotation Yrotation Zrotation
												End Site
												{
													OFFSET 0 0 0
												}
											}
										}
									}
								}
							}
						}
					}
				}
			}
		}
	}
}
MOTION
Frames: 4
Frame Time: 0.03333333
-0.281802 95.269897 -0.167122 0.000000 0.000000 0.000000 -10.820755 -54.588887 -6.746371 -25.341271 11.913175 17.403843 28.595881 14.675956 0.059877 5.962514 0.011468 -9.561054 -0.208564 0.099063 0.223846 0.000000 0.000000 0.000000 -10.820755 -54.588887 -6.746371 -24.161053 -17.086934 -23.198200 37.372838 -3.870264 -3.232965 -8.533353 1.746678 11.585608 1.533490 2.192296 1.956867 0.000000 0.000000 0.000000 -10.820755 -54.588887 -6.746371 5.270416 0.485967 0.367956 4.893952 1.120461 0.299612 0.000000 0.000000 0.000000 0.000000 0.000000 0.000000 8.444751 1.036566 0.033103 2.537416 5.572968 -0.185904 2.372532 37.187194 -7.338934 0.000000 0.000000 0.000000 8.444751 1.036566 0.033103 9.150573 -24.592615 -2.246827 0.000000 0.000000 0.000000 -26.053171 8.217183 -60.618810 -91.270165 13.114503 -86.117177 0.000000 0.000000 0.000000 8.444751 1.036566 0.033103 10.411190 20.330620 -1.369223 0.000000 0.000000 0.000000 3.446561 33.597031 47.887839 -111.710210 63.882602 98.143746 0.000000 0.000000 0.000000 
-0.168750 94.850456 1.021488 0.000000 0.000000 0.000000 -9.974485 -51.749130 -5.860517 -27.360519 11.627054 16.817664 31.188676 12.220556 -0.560241 4.531996 -0.021266 -8.306182 -0.159901 0.111342 0.200534 0.000000 0.000000 0.000000 -9.974485 -51.749130 -5.860517 -25.634865 -12.429328 -24.139640 43.118373 -7.438790 -1.199706 -8.587862 1.730469 9.501125 2.464599 -2.396155 5.551930 0.000000 0.000000 0.000000 -9.974485 -51.749130 -5.860517 5.204556 0.383771 0.493731 4.875919 0.893837 0.313337 0.000000 0.000000 0.000000 0.000000 0.000000 0.000000 8.471698 1.741680 0.006408 2.611685 5.795512 -0.175235 2.871610 40.218500 -7.339834 0.000000 0.000000 0.000000 8.471698 1.741680 0.006408 8.936010 -24.743303 -2.968073 0.000000 0.000000 0.000000 -27.022583 9.098557 -59.788744 -91.418141 12.788477 -85.389686 0.000000 0.000000 0.000000 8.471698 1.741680 0.006408 10.565201 19.946553 -2.142263 0.000000 0.000000 0.000000 2.607384 35.855153 47.333566 -108.235351 63.791631 94.229044 0.000000 0.000000 0.000000 
0.074244 94.201721 2.347912 0.000000 0.000000 0.000000 -9.225366 -48.897410 -5.079829 -29.744808 11.252698 16.389688 34.518523 9.798145 -1.486779 2.821316 -0.141683 -6.795322 -0.139401 0.116994 0.174859 0.000000 0.000000 0.000000 -9.225366 -48.897410 -5.079829 -27.917819 -6.833002 -23.789554 49.588574 -9.912149 -0.525971 -6.615626 1.063924 9.944713 0.450521 -5.814777 7.604774 0.000000 0.000000 0.000000 -9.225366 -48.897410 -5.079829 5.207040 0.366385 0.429960 4.863687 0.771858 0.290882 0.000000 0.000000 0.000000 0.000000 0.000000 0.000000 8.586933 3.956516 -0.180184 2.780790 6.315547 -0.101678 4.081564 47.195460 -7.430022 0.000000 0.000000 0.000000 8.586933 3.956516 -0.180184 8.936045 -24.743282 -2.968067 0.000000 0.000000 0.000000 -27.744179 9.347695 -59.481727 -91.593773 12.768111 -84.592890 0.000000 0.000000 0.000000 8.586933 3.956516 -0.180184 10.553692 19.880010 -2.126519 0.000000 0.000000 0.000000 1.488016 36.451613 47.700361 -106.461250 64.067051 92.216044 0.000000 0.000000 0.000000 
0.425908 93.583557 4.068493 0.000000 0.000000 0.000000 -8.552479 -46.023372 -4.510191 -31.902775 11.010778 15.882611 37.812361 7.430854 -2.461899 0.905423 -0.370637 -4.991786 -0.122899 0.119648 0.154162 0.000000 0.000000 0.000000 -8.552479 -46.023372 -4.510191 -28.105836 -3.178223 -21.210808 51.784268 -10.575100 -1.702800 -6.480230 0.254318 12.135052 -1.542047 -4.454931 6.953896 0.000000 0.000000 0.000000 -8.552479 -46.023372 -4.510191 5.225308 0.378580 0.391354 4.851442 0.664065 0.254403 0.000000 0.000000 0.000000 0.000000 0.000000 0.000000 8.769058 6.939251 -0.451191 2.984248 6.935088 -0.006116 5.584142 54.917159 -7.697122 0.000000 0.000000 0.000000 8.769058 6.939251 -0.451191 8.936031 -24.743252 -2.968067 0.000000 0.000000 0.000000 -28.339505 9.473785 -59.267464 -91.721531 12.751850 -84.013273 0.000000 0.000000 0.000000 8.769058 6.939251 -0.451191 10.544414 19.799692 -2.108455 0.000000 0.000000 0.000000 0.555386 36.837956 47.982659 -105.082877 64.259984 90.644643 0.000000 0.000000 0.000000 
